<mxfile host="app.diagrams.net" modified="2021-11-17T06:05:47.533Z" agent="5.0 (Windows NT 10.0; Win64; x64) AppleWebKit/537.36 (KHTML, like Gecko) Chrome/95.0.4638.69 Safari/537.36" etag="KGghXHSzpCtiMu1hWexZ" version="15.7.3" type="github" pages="3">
  <diagram id="R2lEEEUBdFMjLlhIrx00" name="Page-1">
    <mxGraphModel dx="1422" dy="754" grid="1" gridSize="10" guides="1" tooltips="1" connect="1" arrows="1" fold="1" page="1" pageScale="1" pageWidth="850" pageHeight="1100" math="0" shadow="0" extFonts="Permanent Marker^https://fonts.googleapis.com/css?family=Permanent+Marker">
      <root>
        <mxCell id="0" />
        <mxCell id="1" parent="0" />
        <mxCell id="axf17qlaDFzPtaO-ZyG7-1" value="&lt;div style=&quot;text-align: justify&quot;&gt;&lt;span&gt;&lt;font style=&quot;font-size: 18px&quot;&gt;&lt;b&gt;&lt;span style=&quot;white-space: pre&quot;&gt; &lt;/span&gt;&lt;span style=&quot;white-space: pre&quot;&gt; &lt;/span&gt;TASK 01&lt;/b&gt;&lt;/font&gt;&lt;/span&gt;&lt;/div&gt;" style="rounded=0;whiteSpace=wrap;html=1;fillColor=none;align=left;" parent="1" vertex="1">
          <mxGeometry x="330" y="360" width="230" height="60" as="geometry" />
        </mxCell>
      </root>
    </mxGraphModel>
  </diagram>
  <diagram id="fKy33EnTdBhb9nY1-WNr" name="Page-2">
    <mxGraphModel dx="2622" dy="2354" grid="1" gridSize="10" guides="1" tooltips="1" connect="1" arrows="1" fold="1" page="1" pageScale="1" pageWidth="1200" pageHeight="1600" math="0" shadow="0">
      <root>
        <mxCell id="jFPj4hk-xVhONk_CJJTi-0" />
        <mxCell id="jFPj4hk-xVhONk_CJJTi-1" parent="jFPj4hk-xVhONk_CJJTi-0" />
        <mxCell id="jFPj4hk-xVhONk_CJJTi-4" value="User" style="rounded=0;whiteSpace=wrap;html=1;" parent="jFPj4hk-xVhONk_CJJTi-1" vertex="1">
          <mxGeometry x="260" y="210" width="120" height="60" as="geometry" />
        </mxCell>
        <mxCell id="jFPj4hk-xVhONk_CJJTi-5" value="UserID" style="ellipse;whiteSpace=wrap;html=1;" parent="jFPj4hk-xVhONk_CJJTi-1" vertex="1">
          <mxGeometry x="100" y="180" width="90" height="60" as="geometry" />
        </mxCell>
        <mxCell id="jFPj4hk-xVhONk_CJJTi-6" value="FirstName" style="ellipse;whiteSpace=wrap;html=1;" parent="jFPj4hk-xVhONk_CJJTi-1" vertex="1">
          <mxGeometry x="160" y="100" width="90" height="60" as="geometry" />
        </mxCell>
        <mxCell id="jFPj4hk-xVhONk_CJJTi-7" value="Password" style="ellipse;whiteSpace=wrap;html=1;" parent="jFPj4hk-xVhONk_CJJTi-1" vertex="1">
          <mxGeometry x="360" y="70" width="90" height="60" as="geometry" />
        </mxCell>
        <mxCell id="jFPj4hk-xVhONk_CJJTi-8" value="Email" style="ellipse;whiteSpace=wrap;html=1;" parent="jFPj4hk-xVhONk_CJJTi-1" vertex="1">
          <mxGeometry x="470" y="140" width="90" height="60" as="geometry" />
        </mxCell>
        <mxCell id="jFPj4hk-xVhONk_CJJTi-11" value="Contact" style="ellipse;whiteSpace=wrap;html=1;" parent="jFPj4hk-xVhONk_CJJTi-1" vertex="1">
          <mxGeometry x="440" y="200" width="90" height="60" as="geometry" />
        </mxCell>
        <mxCell id="jFPj4hk-xVhONk_CJJTi-12" value="" style="endArrow=classic;html=1;rounded=0;exitX=0;exitY=0.5;exitDx=0;exitDy=0;" parent="jFPj4hk-xVhONk_CJJTi-1" source="jFPj4hk-xVhONk_CJJTi-4" target="jFPj4hk-xVhONk_CJJTi-5" edge="1">
          <mxGeometry width="50" height="50" relative="1" as="geometry">
            <mxPoint x="380" y="400" as="sourcePoint" />
            <mxPoint x="430" y="350" as="targetPoint" />
          </mxGeometry>
        </mxCell>
        <mxCell id="jFPj4hk-xVhONk_CJJTi-13" value="" style="endArrow=classic;html=1;rounded=0;exitX=0.117;exitY=0.017;exitDx=0;exitDy=0;exitPerimeter=0;" parent="jFPj4hk-xVhONk_CJJTi-1" source="jFPj4hk-xVhONk_CJJTi-4" target="jFPj4hk-xVhONk_CJJTi-6" edge="1">
          <mxGeometry width="50" height="50" relative="1" as="geometry">
            <mxPoint x="380" y="360" as="sourcePoint" />
            <mxPoint x="323.04700063639245" y="336.019789741639" as="targetPoint" />
          </mxGeometry>
        </mxCell>
        <mxCell id="jFPj4hk-xVhONk_CJJTi-14" value="" style="endArrow=classic;html=1;rounded=0;exitX=0.75;exitY=0;exitDx=0;exitDy=0;entryX=0.433;entryY=1.05;entryDx=0;entryDy=0;entryPerimeter=0;" parent="jFPj4hk-xVhONk_CJJTi-1" source="jFPj4hk-xVhONk_CJJTi-4" target="jFPj4hk-xVhONk_CJJTi-7" edge="1">
          <mxGeometry width="50" height="50" relative="1" as="geometry">
            <mxPoint x="394.03999999999996" y="331.02" as="sourcePoint" />
            <mxPoint x="382.9033801807383" y="289.5336838332855" as="targetPoint" />
          </mxGeometry>
        </mxCell>
        <mxCell id="jFPj4hk-xVhONk_CJJTi-15" value="" style="endArrow=classic;html=1;rounded=0;exitX=1;exitY=0.25;exitDx=0;exitDy=0;entryX=0;entryY=0.5;entryDx=0;entryDy=0;" parent="jFPj4hk-xVhONk_CJJTi-1" source="jFPj4hk-xVhONk_CJJTi-4" target="jFPj4hk-xVhONk_CJJTi-8" edge="1">
          <mxGeometry width="50" height="50" relative="1" as="geometry">
            <mxPoint x="404.03999999999996" y="341.02" as="sourcePoint" />
            <mxPoint x="392.9033801807383" y="299.5336838332855" as="targetPoint" />
          </mxGeometry>
        </mxCell>
        <mxCell id="jFPj4hk-xVhONk_CJJTi-16" value="" style="endArrow=classic;html=1;rounded=0;exitX=1;exitY=0.75;exitDx=0;exitDy=0;entryX=0;entryY=0.667;entryDx=0;entryDy=0;entryPerimeter=0;" parent="jFPj4hk-xVhONk_CJJTi-1" source="jFPj4hk-xVhONk_CJJTi-4" target="jFPj4hk-xVhONk_CJJTi-11" edge="1">
          <mxGeometry width="50" height="50" relative="1" as="geometry">
            <mxPoint x="414.03999999999996" y="351.02" as="sourcePoint" />
            <mxPoint x="402.9033801807383" y="309.5336838332855" as="targetPoint" />
          </mxGeometry>
        </mxCell>
        <mxCell id="jFPj4hk-xVhONk_CJJTi-17" value="Address" style="ellipse;whiteSpace=wrap;html=1;" parent="jFPj4hk-xVhONk_CJJTi-1" vertex="1">
          <mxGeometry x="230" y="330" width="90" height="60" as="geometry" />
        </mxCell>
        <mxCell id="jFPj4hk-xVhONk_CJJTi-18" value="" style="endArrow=classic;html=1;rounded=0;exitX=0.75;exitY=1;exitDx=0;exitDy=0;" parent="jFPj4hk-xVhONk_CJJTi-1" source="jFPj4hk-xVhONk_CJJTi-4" target="jFPj4hk-xVhONk_CJJTi-17" edge="1">
          <mxGeometry width="50" height="50" relative="1" as="geometry">
            <mxPoint x="470" y="390" as="sourcePoint" />
            <mxPoint x="523.1801948466053" y="408.78679656440363" as="targetPoint" />
          </mxGeometry>
        </mxCell>
        <mxCell id="jFPj4hk-xVhONk_CJJTi-19" value="Product" style="rounded=0;whiteSpace=wrap;html=1;" parent="jFPj4hk-xVhONk_CJJTi-1" vertex="1">
          <mxGeometry x="230" y="560" width="120" height="60" as="geometry" />
        </mxCell>
        <mxCell id="jFPj4hk-xVhONk_CJJTi-20" value="ProductID" style="ellipse;whiteSpace=wrap;html=1;" parent="jFPj4hk-xVhONk_CJJTi-1" vertex="1">
          <mxGeometry x="90" y="500" width="90" height="60" as="geometry" />
        </mxCell>
        <mxCell id="jFPj4hk-xVhONk_CJJTi-21" value="ProductName" style="ellipse;whiteSpace=wrap;html=1;" parent="jFPj4hk-xVhONk_CJJTi-1" vertex="1">
          <mxGeometry x="240" y="440" width="90" height="60" as="geometry" />
        </mxCell>
        <mxCell id="jFPj4hk-xVhONk_CJJTi-22" value="Price&lt;span style=&quot;color: rgba(0 , 0 , 0 , 0) ; font-family: monospace ; font-size: 0px&quot;&gt;%3CmxGraphModel%3E%3Croot%3E%3CmxCell%20id%3D%220%22%2F%3E%3CmxCell%20id%3D%221%22%20parent%3D%220%22%2F%3E%3CmxCell%20id%3D%222%22%20value%3D%22ProductID%22%20style%3D%22ellipse%3BwhiteSpace%3Dwrap%3Bhtml%3D1%3B%22%20vertex%3D%221%22%20parent%3D%221%22%3E%3CmxGeometry%20x%3D%22250%22%20y%3D%22510%22%20width%3D%2290%22%20height%3D%2260%22%20as%3D%22geometry%22%2F%3E%3C%2FmxCell%3E%3C%2Froot%3E%3C%2FmxGraphModel%3E&lt;/span&gt;" style="ellipse;whiteSpace=wrap;html=1;" parent="jFPj4hk-xVhONk_CJJTi-1" vertex="1">
          <mxGeometry x="340" y="425" width="90" height="60" as="geometry" />
        </mxCell>
        <mxCell id="jFPj4hk-xVhONk_CJJTi-23" value="CategoryID" style="ellipse;whiteSpace=wrap;html=1;" parent="jFPj4hk-xVhONk_CJJTi-1" vertex="1">
          <mxGeometry x="420" y="680" width="90" height="60" as="geometry" />
        </mxCell>
        <mxCell id="jFPj4hk-xVhONk_CJJTi-24" value="Quentity" style="ellipse;whiteSpace=wrap;html=1;" parent="jFPj4hk-xVhONk_CJJTi-1" vertex="1">
          <mxGeometry x="290" y="690" width="90" height="60" as="geometry" />
        </mxCell>
        <mxCell id="jFPj4hk-xVhONk_CJJTi-25" value="ProductDescription" style="ellipse;whiteSpace=wrap;html=1;" parent="jFPj4hk-xVhONk_CJJTi-1" vertex="1">
          <mxGeometry x="90" y="600" width="90" height="60" as="geometry" />
        </mxCell>
        <mxCell id="jFPj4hk-xVhONk_CJJTi-26" value="" style="endArrow=classic;html=1;rounded=0;exitX=0;exitY=0.5;exitDx=0;exitDy=0;entryX=1;entryY=1;entryDx=0;entryDy=0;" parent="jFPj4hk-xVhONk_CJJTi-1" source="jFPj4hk-xVhONk_CJJTi-19" target="jFPj4hk-xVhONk_CJJTi-20" edge="1">
          <mxGeometry width="50" height="50" relative="1" as="geometry">
            <mxPoint x="380" y="360" as="sourcePoint" />
            <mxPoint x="323.04700063639245" y="336.019789741639" as="targetPoint" />
          </mxGeometry>
        </mxCell>
        <mxCell id="jFPj4hk-xVhONk_CJJTi-27" value="" style="endArrow=classic;html=1;rounded=0;exitX=0;exitY=0.75;exitDx=0;exitDy=0;entryX=1;entryY=0.5;entryDx=0;entryDy=0;" parent="jFPj4hk-xVhONk_CJJTi-1" source="jFPj4hk-xVhONk_CJJTi-19" target="jFPj4hk-xVhONk_CJJTi-25" edge="1">
          <mxGeometry width="50" height="50" relative="1" as="geometry">
            <mxPoint x="380" y="595" as="sourcePoint" />
            <mxPoint x="336.81980515339467" y="571.2132034355964" as="targetPoint" />
          </mxGeometry>
        </mxCell>
        <mxCell id="jFPj4hk-xVhONk_CJJTi-28" value="" style="endArrow=classic;html=1;rounded=0;exitX=0.25;exitY=0;exitDx=0;exitDy=0;entryX=0.5;entryY=1;entryDx=0;entryDy=0;" parent="jFPj4hk-xVhONk_CJJTi-1" source="jFPj4hk-xVhONk_CJJTi-19" target="jFPj4hk-xVhONk_CJJTi-21" edge="1">
          <mxGeometry width="50" height="50" relative="1" as="geometry">
            <mxPoint x="390" y="605" as="sourcePoint" />
            <mxPoint x="346.81980515339467" y="581.2132034355964" as="targetPoint" />
          </mxGeometry>
        </mxCell>
        <mxCell id="jFPj4hk-xVhONk_CJJTi-29" value="" style="endArrow=classic;html=1;rounded=0;exitX=0.75;exitY=0;exitDx=0;exitDy=0;entryX=0.5;entryY=1;entryDx=0;entryDy=0;" parent="jFPj4hk-xVhONk_CJJTi-1" source="jFPj4hk-xVhONk_CJJTi-19" target="jFPj4hk-xVhONk_CJJTi-22" edge="1">
          <mxGeometry width="50" height="50" relative="1" as="geometry">
            <mxPoint x="400" y="615" as="sourcePoint" />
            <mxPoint x="356.81980515339467" y="591.2132034355964" as="targetPoint" />
          </mxGeometry>
        </mxCell>
        <mxCell id="jFPj4hk-xVhONk_CJJTi-30" value="" style="endArrow=classic;html=1;rounded=0;exitX=1;exitY=0.75;exitDx=0;exitDy=0;entryX=0.5;entryY=0;entryDx=0;entryDy=0;" parent="jFPj4hk-xVhONk_CJJTi-1" source="jFPj4hk-xVhONk_CJJTi-19" target="jFPj4hk-xVhONk_CJJTi-23" edge="1">
          <mxGeometry width="50" height="50" relative="1" as="geometry">
            <mxPoint x="410" y="625" as="sourcePoint" />
            <mxPoint x="470" y="720" as="targetPoint" />
          </mxGeometry>
        </mxCell>
        <mxCell id="jFPj4hk-xVhONk_CJJTi-31" value="" style="endArrow=classic;html=1;rounded=0;exitX=0.75;exitY=1;exitDx=0;exitDy=0;exitPerimeter=0;" parent="jFPj4hk-xVhONk_CJJTi-1" source="jFPj4hk-xVhONk_CJJTi-19" target="jFPj4hk-xVhONk_CJJTi-24" edge="1">
          <mxGeometry width="50" height="50" relative="1" as="geometry">
            <mxPoint x="450" y="635" as="sourcePoint" />
            <mxPoint x="376.81980515339467" y="611.2132034355964" as="targetPoint" />
          </mxGeometry>
        </mxCell>
        <mxCell id="jFPj4hk-xVhONk_CJJTi-32" value="Image" style="ellipse;whiteSpace=wrap;html=1;" parent="jFPj4hk-xVhONk_CJJTi-1" vertex="1">
          <mxGeometry x="-10" y="935" width="90" height="60" as="geometry" />
        </mxCell>
        <mxCell id="jFPj4hk-xVhONk_CJJTi-34" value="Category" style="rounded=0;whiteSpace=wrap;html=1;" parent="jFPj4hk-xVhONk_CJJTi-1" vertex="1">
          <mxGeometry x="940" y="560" width="120" height="60" as="geometry" />
        </mxCell>
        <mxCell id="jFPj4hk-xVhONk_CJJTi-35" value="CategoryID" style="ellipse;whiteSpace=wrap;html=1;" parent="jFPj4hk-xVhONk_CJJTi-1" vertex="1">
          <mxGeometry x="780" y="555" width="90" height="60" as="geometry" />
        </mxCell>
        <mxCell id="jFPj4hk-xVhONk_CJJTi-36" value="" style="endArrow=classic;html=1;rounded=0;exitX=0;exitY=0.5;exitDx=0;exitDy=0;" parent="jFPj4hk-xVhONk_CJJTi-1" source="jFPj4hk-xVhONk_CJJTi-34" target="jFPj4hk-xVhONk_CJJTi-35" edge="1">
          <mxGeometry width="50" height="50" relative="1" as="geometry">
            <mxPoint x="920" y="350" as="sourcePoint" />
            <mxPoint x="970" y="300" as="targetPoint" />
          </mxGeometry>
        </mxCell>
        <mxCell id="jFPj4hk-xVhONk_CJJTi-37" value="CategoryName" style="ellipse;whiteSpace=wrap;html=1;" parent="jFPj4hk-xVhONk_CJJTi-1" vertex="1">
          <mxGeometry x="820" y="660" width="90" height="60" as="geometry" />
        </mxCell>
        <mxCell id="jFPj4hk-xVhONk_CJJTi-38" value="" style="endArrow=classic;html=1;rounded=0;exitX=0;exitY=1;exitDx=0;exitDy=0;" parent="jFPj4hk-xVhONk_CJJTi-1" source="jFPj4hk-xVhONk_CJJTi-34" target="jFPj4hk-xVhONk_CJJTi-37" edge="1">
          <mxGeometry width="50" height="50" relative="1" as="geometry">
            <mxPoint x="1010" y="340" as="sourcePoint" />
            <mxPoint x="1063.1801948466054" y="358.78679656440363" as="targetPoint" />
          </mxGeometry>
        </mxCell>
        <mxCell id="jFPj4hk-xVhONk_CJJTi-39" value="Order" style="rounded=0;whiteSpace=wrap;html=1;" parent="jFPj4hk-xVhONk_CJJTi-1" vertex="1">
          <mxGeometry x="910" y="230" width="120" height="60" as="geometry" />
        </mxCell>
        <mxCell id="jFPj4hk-xVhONk_CJJTi-42" value="OrderID" style="ellipse;whiteSpace=wrap;html=1;" parent="jFPj4hk-xVhONk_CJJTi-1" vertex="1">
          <mxGeometry x="760" y="300" width="90" height="60" as="geometry" />
        </mxCell>
        <mxCell id="jFPj4hk-xVhONk_CJJTi-43" value="" style="endArrow=classic;html=1;rounded=0;exitX=0;exitY=1;exitDx=0;exitDy=0;" parent="jFPj4hk-xVhONk_CJJTi-1" source="jFPj4hk-xVhONk_CJJTi-39" target="jFPj4hk-xVhONk_CJJTi-42" edge="1">
          <mxGeometry width="50" height="50" relative="1" as="geometry">
            <mxPoint x="1010" y="600" as="sourcePoint" />
            <mxPoint x="1063.1801948466054" y="618.7867965644036" as="targetPoint" />
          </mxGeometry>
        </mxCell>
        <mxCell id="jFPj4hk-xVhONk_CJJTi-44" value="UserID" style="ellipse;whiteSpace=wrap;html=1;" parent="jFPj4hk-xVhONk_CJJTi-1" vertex="1">
          <mxGeometry x="740" y="230" width="90" height="60" as="geometry" />
        </mxCell>
        <mxCell id="jFPj4hk-xVhONk_CJJTi-45" value="" style="endArrow=classic;html=1;rounded=0;exitX=0;exitY=0.25;exitDx=0;exitDy=0;" parent="jFPj4hk-xVhONk_CJJTi-1" source="jFPj4hk-xVhONk_CJJTi-39" target="jFPj4hk-xVhONk_CJJTi-44" edge="1">
          <mxGeometry width="50" height="50" relative="1" as="geometry">
            <mxPoint x="910" y="560" as="sourcePoint" />
            <mxPoint x="970" y="560" as="targetPoint" />
          </mxGeometry>
        </mxCell>
        <mxCell id="jFPj4hk-xVhONk_CJJTi-46" value="Total" style="ellipse;whiteSpace=wrap;html=1;" parent="jFPj4hk-xVhONk_CJJTi-1" vertex="1">
          <mxGeometry x="1100" y="110" width="90" height="60" as="geometry" />
        </mxCell>
        <mxCell id="jFPj4hk-xVhONk_CJJTi-47" value="" style="endArrow=classic;html=1;rounded=0;entryX=0.622;entryY=1;entryDx=0;entryDy=0;entryPerimeter=0;exitX=0.75;exitY=0;exitDx=0;exitDy=0;" parent="jFPj4hk-xVhONk_CJJTi-1" source="jFPj4hk-xVhONk_CJJTi-39" target="jFPj4hk-xVhONk_CJJTi-46" edge="1">
          <mxGeometry width="50" height="50" relative="1" as="geometry">
            <mxPoint x="1030" y="520" as="sourcePoint" />
            <mxPoint x="1090" y="520" as="targetPoint" />
          </mxGeometry>
        </mxCell>
        <mxCell id="jFPj4hk-xVhONk_CJJTi-48" value="Status" style="ellipse;whiteSpace=wrap;html=1;" parent="jFPj4hk-xVhONk_CJJTi-1" vertex="1">
          <mxGeometry x="1110" y="180" width="90" height="60" as="geometry" />
        </mxCell>
        <mxCell id="jFPj4hk-xVhONk_CJJTi-49" value="" style="endArrow=classic;html=1;rounded=0;exitX=1;exitY=0;exitDx=0;exitDy=0;" parent="jFPj4hk-xVhONk_CJJTi-1" source="jFPj4hk-xVhONk_CJJTi-39" target="jFPj4hk-xVhONk_CJJTi-48" edge="1">
          <mxGeometry width="50" height="50" relative="1" as="geometry">
            <mxPoint x="1160" y="520" as="sourcePoint" />
            <mxPoint x="1220" y="520" as="targetPoint" />
          </mxGeometry>
        </mxCell>
        <mxCell id="jFPj4hk-xVhONk_CJJTi-50" value="LastName" style="ellipse;whiteSpace=wrap;html=1;" parent="jFPj4hk-xVhONk_CJJTi-1" vertex="1">
          <mxGeometry x="260" y="79.99999999999999" width="90" height="60" as="geometry" />
        </mxCell>
        <mxCell id="jFPj4hk-xVhONk_CJJTi-51" value="" style="endArrow=classic;html=1;rounded=0;exitX=0.5;exitY=0;exitDx=0;exitDy=0;" parent="jFPj4hk-xVhONk_CJJTi-1" source="jFPj4hk-xVhONk_CJJTi-4" target="jFPj4hk-xVhONk_CJJTi-50" edge="1">
          <mxGeometry width="50" height="50" relative="1" as="geometry">
            <mxPoint x="444.03999999999996" y="270" as="sourcePoint" />
            <mxPoint x="383.04700063639245" y="284.999789741639" as="targetPoint" />
          </mxGeometry>
        </mxCell>
        <mxCell id="jFPj4hk-xVhONk_CJJTi-54" value="Quentity" style="ellipse;whiteSpace=wrap;html=1;" parent="jFPj4hk-xVhONk_CJJTi-1" vertex="1">
          <mxGeometry x="1080" y="245" width="90" height="60" as="geometry" />
        </mxCell>
        <mxCell id="jFPj4hk-xVhONk_CJJTi-55" value="" style="endArrow=classic;html=1;rounded=0;exitX=1;exitY=0.5;exitDx=0;exitDy=0;" parent="jFPj4hk-xVhONk_CJJTi-1" source="jFPj4hk-xVhONk_CJJTi-39" target="jFPj4hk-xVhONk_CJJTi-54" edge="1">
          <mxGeometry width="50" height="50" relative="1" as="geometry">
            <mxPoint x="960" y="590" as="sourcePoint" />
            <mxPoint x="876.8198051533947" y="571.2132034355964" as="targetPoint" />
          </mxGeometry>
        </mxCell>
        <mxCell id="jFPj4hk-xVhONk_CJJTi-56" value="order" style="rhombus;whiteSpace=wrap;html=1;" parent="jFPj4hk-xVhONk_CJJTi-1" vertex="1">
          <mxGeometry x="580" y="80" width="70" height="60" as="geometry" />
        </mxCell>
        <mxCell id="jFPj4hk-xVhONk_CJJTi-57" value="" style="endArrow=none;html=1;rounded=0;entryX=0;entryY=0;entryDx=0;entryDy=0;exitX=1;exitY=0;exitDx=0;exitDy=0;startArrow=none;" parent="jFPj4hk-xVhONk_CJJTi-1" source="jFPj4hk-xVhONk_CJJTi-71" target="jFPj4hk-xVhONk_CJJTi-39" edge="1">
          <mxGeometry width="50" height="50" relative="1" as="geometry">
            <mxPoint x="680" y="410" as="sourcePoint" />
            <mxPoint x="730" y="360" as="targetPoint" />
          </mxGeometry>
        </mxCell>
        <mxCell id="jFPj4hk-xVhONk_CJJTi-58" value="" style="endArrow=none;html=1;rounded=0;exitX=0.5;exitY=1;exitDx=0;exitDy=0;entryX=1;entryY=0;entryDx=0;entryDy=0;startArrow=none;" parent="jFPj4hk-xVhONk_CJJTi-1" source="jFPj4hk-xVhONk_CJJTi-73" target="jFPj4hk-xVhONk_CJJTi-4" edge="1">
          <mxGeometry width="50" height="50" relative="1" as="geometry">
            <mxPoint x="680" y="410" as="sourcePoint" />
            <mxPoint x="730" y="360" as="targetPoint" />
          </mxGeometry>
        </mxCell>
        <mxCell id="jFPj4hk-xVhONk_CJJTi-59" value="have" style="rhombus;whiteSpace=wrap;html=1;" parent="jFPj4hk-xVhONk_CJJTi-1" vertex="1">
          <mxGeometry x="580" y="660" width="70" height="60" as="geometry" />
        </mxCell>
        <mxCell id="jFPj4hk-xVhONk_CJJTi-60" value="" style="endArrow=none;html=1;rounded=0;exitX=1;exitY=0.5;exitDx=0;exitDy=0;entryX=0;entryY=0.75;entryDx=0;entryDy=0;startArrow=none;" parent="jFPj4hk-xVhONk_CJJTi-1" source="jFPj4hk-xVhONk_CJJTi-67" target="jFPj4hk-xVhONk_CJJTi-34" edge="1">
          <mxGeometry width="50" height="50" relative="1" as="geometry">
            <mxPoint x="680" y="410" as="sourcePoint" />
            <mxPoint x="730" y="360" as="targetPoint" />
          </mxGeometry>
        </mxCell>
        <mxCell id="jFPj4hk-xVhONk_CJJTi-61" value="" style="endArrow=none;html=1;rounded=0;exitX=0;exitY=0.5;exitDx=0;exitDy=0;entryX=1;entryY=0.5;entryDx=0;entryDy=0;startArrow=none;" parent="jFPj4hk-xVhONk_CJJTi-1" source="jFPj4hk-xVhONk_CJJTi-69" target="jFPj4hk-xVhONk_CJJTi-19" edge="1">
          <mxGeometry width="50" height="50" relative="1" as="geometry">
            <mxPoint x="680" y="410" as="sourcePoint" />
            <mxPoint x="730" y="360" as="targetPoint" />
          </mxGeometry>
        </mxCell>
        <mxCell id="jFPj4hk-xVhONk_CJJTi-64" value="Orderdeatils" style="rhombus;whiteSpace=wrap;html=1;" parent="jFPj4hk-xVhONk_CJJTi-1" vertex="1">
          <mxGeometry x="590" y="395" width="70" height="60" as="geometry" />
        </mxCell>
        <mxCell id="jFPj4hk-xVhONk_CJJTi-65" value="" style="endArrow=none;html=1;rounded=0;exitX=1;exitY=0.25;exitDx=0;exitDy=0;entryX=0;entryY=0.5;entryDx=0;entryDy=0;startArrow=none;" parent="jFPj4hk-xVhONk_CJJTi-1" source="jFPj4hk-xVhONk_CJJTi-77" target="jFPj4hk-xVhONk_CJJTi-64" edge="1">
          <mxGeometry width="50" height="50" relative="1" as="geometry">
            <mxPoint x="680" y="490" as="sourcePoint" />
            <mxPoint x="730" y="440" as="targetPoint" />
          </mxGeometry>
        </mxCell>
        <mxCell id="jFPj4hk-xVhONk_CJJTi-66" value="" style="endArrow=none;html=1;rounded=0;exitX=1;exitY=0.5;exitDx=0;exitDy=0;entryX=0.5;entryY=1;entryDx=0;entryDy=0;startArrow=none;" parent="jFPj4hk-xVhONk_CJJTi-1" source="jFPj4hk-xVhONk_CJJTi-75" target="jFPj4hk-xVhONk_CJJTi-39" edge="1">
          <mxGeometry width="50" height="50" relative="1" as="geometry">
            <mxPoint x="680" y="490" as="sourcePoint" />
            <mxPoint x="730" y="440" as="targetPoint" />
          </mxGeometry>
        </mxCell>
        <mxCell id="jFPj4hk-xVhONk_CJJTi-67" value="M" style="ellipse;whiteSpace=wrap;html=1;" parent="jFPj4hk-xVhONk_CJJTi-1" vertex="1">
          <mxGeometry x="880" y="600" width="30" height="30" as="geometry" />
        </mxCell>
        <mxCell id="jFPj4hk-xVhONk_CJJTi-68" value="" style="endArrow=none;html=1;rounded=0;exitX=1;exitY=0.5;exitDx=0;exitDy=0;entryX=0;entryY=0.75;entryDx=0;entryDy=0;" parent="jFPj4hk-xVhONk_CJJTi-1" source="jFPj4hk-xVhONk_CJJTi-59" target="jFPj4hk-xVhONk_CJJTi-67" edge="1">
          <mxGeometry width="50" height="50" relative="1" as="geometry">
            <mxPoint x="650" y="690" as="sourcePoint" />
            <mxPoint x="940" y="645" as="targetPoint" />
          </mxGeometry>
        </mxCell>
        <mxCell id="jFPj4hk-xVhONk_CJJTi-69" value="1" style="ellipse;whiteSpace=wrap;html=1;" parent="jFPj4hk-xVhONk_CJJTi-1" vertex="1">
          <mxGeometry x="370" y="590" width="30" height="30" as="geometry" />
        </mxCell>
        <mxCell id="jFPj4hk-xVhONk_CJJTi-70" value="" style="endArrow=none;html=1;rounded=0;exitX=0;exitY=0.5;exitDx=0;exitDy=0;entryX=1;entryY=1;entryDx=0;entryDy=0;" parent="jFPj4hk-xVhONk_CJJTi-1" source="jFPj4hk-xVhONk_CJJTi-59" target="jFPj4hk-xVhONk_CJJTi-69" edge="1">
          <mxGeometry width="50" height="50" relative="1" as="geometry">
            <mxPoint x="580" y="690" as="sourcePoint" />
            <mxPoint x="350" y="590" as="targetPoint" />
          </mxGeometry>
        </mxCell>
        <mxCell id="jFPj4hk-xVhONk_CJJTi-71" value="M" style="ellipse;whiteSpace=wrap;html=1;" parent="jFPj4hk-xVhONk_CJJTi-1" vertex="1">
          <mxGeometry x="740" y="155" width="30" height="30" as="geometry" />
        </mxCell>
        <mxCell id="jFPj4hk-xVhONk_CJJTi-72" value="" style="endArrow=none;html=1;rounded=0;entryX=0;entryY=0.75;entryDx=0;entryDy=0;exitX=1;exitY=0.5;exitDx=0;exitDy=0;" parent="jFPj4hk-xVhONk_CJJTi-1" source="jFPj4hk-xVhONk_CJJTi-56" target="jFPj4hk-xVhONk_CJJTi-71" edge="1">
          <mxGeometry width="50" height="50" relative="1" as="geometry">
            <mxPoint x="165" y="350" as="sourcePoint" />
            <mxPoint x="260" y="255" as="targetPoint" />
          </mxGeometry>
        </mxCell>
        <mxCell id="jFPj4hk-xVhONk_CJJTi-73" value="M" style="ellipse;whiteSpace=wrap;html=1;" parent="jFPj4hk-xVhONk_CJJTi-1" vertex="1">
          <mxGeometry x="390" y="160" width="30" height="30" as="geometry" />
        </mxCell>
        <mxCell id="jFPj4hk-xVhONk_CJJTi-74" value="" style="endArrow=none;html=1;rounded=0;exitX=0;exitY=0.5;exitDx=0;exitDy=0;entryX=1;entryY=0;entryDx=0;entryDy=0;" parent="jFPj4hk-xVhONk_CJJTi-1" source="jFPj4hk-xVhONk_CJJTi-56" target="jFPj4hk-xVhONk_CJJTi-73" edge="1">
          <mxGeometry width="50" height="50" relative="1" as="geometry">
            <mxPoint x="165" y="410" as="sourcePoint" />
            <mxPoint x="230" y="575" as="targetPoint" />
          </mxGeometry>
        </mxCell>
        <mxCell id="jFPj4hk-xVhONk_CJJTi-75" value="M" style="ellipse;whiteSpace=wrap;html=1;" parent="jFPj4hk-xVhONk_CJJTi-1" vertex="1">
          <mxGeometry x="910" y="305" width="30" height="30" as="geometry" />
        </mxCell>
        <mxCell id="jFPj4hk-xVhONk_CJJTi-76" value="" style="endArrow=none;html=1;rounded=0;exitX=1;exitY=0.5;exitDx=0;exitDy=0;entryX=0;entryY=1;entryDx=0;entryDy=0;" parent="jFPj4hk-xVhONk_CJJTi-1" source="jFPj4hk-xVhONk_CJJTi-64" target="jFPj4hk-xVhONk_CJJTi-75" edge="1">
          <mxGeometry width="50" height="50" relative="1" as="geometry">
            <mxPoint x="660" y="470" as="sourcePoint" />
            <mxPoint x="970" y="290" as="targetPoint" />
          </mxGeometry>
        </mxCell>
        <mxCell id="jFPj4hk-xVhONk_CJJTi-77" value="M" style="ellipse;whiteSpace=wrap;html=1;" parent="jFPj4hk-xVhONk_CJJTi-1" vertex="1">
          <mxGeometry x="370" y="540" width="30" height="30" as="geometry" />
        </mxCell>
        <mxCell id="jFPj4hk-xVhONk_CJJTi-78" value="" style="endArrow=none;html=1;rounded=0;exitX=1;exitY=0.25;exitDx=0;exitDy=0;entryX=0;entryY=0.5;entryDx=0;entryDy=0;" parent="jFPj4hk-xVhONk_CJJTi-1" source="jFPj4hk-xVhONk_CJJTi-19" target="jFPj4hk-xVhONk_CJJTi-77" edge="1">
          <mxGeometry width="50" height="50" relative="1" as="geometry">
            <mxPoint x="350" y="575" as="sourcePoint" />
            <mxPoint x="590" y="470" as="targetPoint" />
          </mxGeometry>
        </mxCell>
        <mxCell id="jFPj4hk-xVhONk_CJJTi-79" value="UserId" style="ellipse;whiteSpace=wrap;html=1;" parent="jFPj4hk-xVhONk_CJJTi-1" vertex="1">
          <mxGeometry x="690" width="90" height="60" as="geometry" />
        </mxCell>
        <mxCell id="jFPj4hk-xVhONk_CJJTi-80" value="ProductId" style="ellipse;whiteSpace=wrap;html=1;" parent="jFPj4hk-xVhONk_CJJTi-1" vertex="1">
          <mxGeometry x="500" y="20" width="90" height="60" as="geometry" />
        </mxCell>
        <mxCell id="jFPj4hk-xVhONk_CJJTi-81" value="OrderId" style="ellipse;whiteSpace=wrap;html=1;" parent="jFPj4hk-xVhONk_CJJTi-1" vertex="1">
          <mxGeometry x="590" y="-10" width="90" height="60" as="geometry" />
        </mxCell>
        <mxCell id="jFPj4hk-xVhONk_CJJTi-82" value="" style="endArrow=none;html=1;rounded=0;exitX=-0.022;exitY=0.683;exitDx=0;exitDy=0;exitPerimeter=0;" parent="jFPj4hk-xVhONk_CJJTi-1" source="jFPj4hk-xVhONk_CJJTi-79" target="jFPj4hk-xVhONk_CJJTi-56" edge="1">
          <mxGeometry width="50" height="50" relative="1" as="geometry">
            <mxPoint x="680" y="490" as="sourcePoint" />
            <mxPoint x="730" y="440" as="targetPoint" />
          </mxGeometry>
        </mxCell>
        <mxCell id="jFPj4hk-xVhONk_CJJTi-83" value="" style="endArrow=none;html=1;rounded=0;entryX=0;entryY=0;entryDx=0;entryDy=0;" parent="jFPj4hk-xVhONk_CJJTi-1" source="jFPj4hk-xVhONk_CJJTi-80" target="jFPj4hk-xVhONk_CJJTi-56" edge="1">
          <mxGeometry width="50" height="50" relative="1" as="geometry">
            <mxPoint x="110" y="330" as="sourcePoint" />
            <mxPoint x="158.14814814814827" y="374.44444444444434" as="targetPoint" />
          </mxGeometry>
        </mxCell>
        <mxCell id="jFPj4hk-xVhONk_CJJTi-84" value="" style="endArrow=none;html=1;rounded=0;exitX=0.5;exitY=1;exitDx=0;exitDy=0;entryX=0.5;entryY=0;entryDx=0;entryDy=0;" parent="jFPj4hk-xVhONk_CJJTi-1" source="jFPj4hk-xVhONk_CJJTi-81" target="jFPj4hk-xVhONk_CJJTi-56" edge="1">
          <mxGeometry width="50" height="50" relative="1" as="geometry">
            <mxPoint x="120" y="340" as="sourcePoint" />
            <mxPoint x="665" y="100" as="targetPoint" />
          </mxGeometry>
        </mxCell>
        <mxCell id="FuNunQ9VVVspa1cT3jQB-0" value="Role" style="ellipse;whiteSpace=wrap;html=1;" parent="jFPj4hk-xVhONk_CJJTi-1" vertex="1">
          <mxGeometry x="130" y="280" width="90" height="60" as="geometry" />
        </mxCell>
        <mxCell id="FuNunQ9VVVspa1cT3jQB-1" value="" style="endArrow=classic;html=1;rounded=0;exitX=0.5;exitY=1;exitDx=0;exitDy=0;" parent="jFPj4hk-xVhONk_CJJTi-1" source="jFPj4hk-xVhONk_CJJTi-4" target="FuNunQ9VVVspa1cT3jQB-0" edge="1">
          <mxGeometry width="50" height="50" relative="1" as="geometry">
            <mxPoint x="365" y="315" as="sourcePoint" />
            <mxPoint x="1105" y="550" as="targetPoint" />
          </mxGeometry>
        </mxCell>
        <mxCell id="FuNunQ9VVVspa1cT3jQB-6" value="Brand" style="rounded=0;whiteSpace=wrap;html=1;" parent="jFPj4hk-xVhONk_CJJTi-1" vertex="1">
          <mxGeometry x="970" y="425" width="120" height="60" as="geometry" />
        </mxCell>
        <mxCell id="FuNunQ9VVVspa1cT3jQB-7" value="BrandID" style="ellipse;whiteSpace=wrap;html=1;" parent="jFPj4hk-xVhONk_CJJTi-1" vertex="1">
          <mxGeometry x="1030" y="335" width="90" height="60" as="geometry" />
        </mxCell>
        <mxCell id="FuNunQ9VVVspa1cT3jQB-8" value="" style="endArrow=classic;html=1;rounded=0;" parent="jFPj4hk-xVhONk_CJJTi-1" target="FuNunQ9VVVspa1cT3jQB-7" edge="1">
          <mxGeometry width="50" height="50" relative="1" as="geometry">
            <mxPoint x="1050" y="420" as="sourcePoint" />
            <mxPoint x="1060" y="135" as="targetPoint" />
          </mxGeometry>
        </mxCell>
        <mxCell id="FuNunQ9VVVspa1cT3jQB-9" value="BrandName" style="ellipse;whiteSpace=wrap;html=1;" parent="jFPj4hk-xVhONk_CJJTi-1" vertex="1">
          <mxGeometry x="1060" y="500" width="90" height="60" as="geometry" />
        </mxCell>
        <mxCell id="FuNunQ9VVVspa1cT3jQB-10" value="" style="endArrow=classic;html=1;rounded=0;exitX=0.75;exitY=1;exitDx=0;exitDy=0;" parent="jFPj4hk-xVhONk_CJJTi-1" source="FuNunQ9VVVspa1cT3jQB-6" target="FuNunQ9VVVspa1cT3jQB-9" edge="1">
          <mxGeometry width="50" height="50" relative="1" as="geometry">
            <mxPoint x="1100" y="175" as="sourcePoint" />
            <mxPoint x="1153.1801948466054" y="193.78679656440363" as="targetPoint" />
          </mxGeometry>
        </mxCell>
        <mxCell id="FuNunQ9VVVspa1cT3jQB-11" value="have" style="rhombus;whiteSpace=wrap;html=1;" parent="jFPj4hk-xVhONk_CJJTi-1" vertex="1">
          <mxGeometry x="601.54" y="590" width="70" height="60" as="geometry" />
        </mxCell>
        <mxCell id="FuNunQ9VVVspa1cT3jQB-12" value="" style="endArrow=none;html=1;rounded=0;exitX=1;exitY=0.5;exitDx=0;exitDy=0;entryX=0;entryY=0.4;entryDx=0;entryDy=0;startArrow=none;entryPerimeter=0;" parent="jFPj4hk-xVhONk_CJJTi-1" source="FuNunQ9VVVspa1cT3jQB-13" target="FuNunQ9VVVspa1cT3jQB-6" edge="1">
          <mxGeometry width="50" height="50" relative="1" as="geometry">
            <mxPoint x="770" y="245" as="sourcePoint" />
            <mxPoint x="820" y="195" as="targetPoint" />
          </mxGeometry>
        </mxCell>
        <mxCell id="FuNunQ9VVVspa1cT3jQB-13" value="M" style="ellipse;whiteSpace=wrap;html=1;" parent="jFPj4hk-xVhONk_CJJTi-1" vertex="1">
          <mxGeometry x="910" y="435" width="30" height="30" as="geometry" />
        </mxCell>
        <mxCell id="FuNunQ9VVVspa1cT3jQB-14" value="" style="endArrow=none;html=1;rounded=0;exitX=1;exitY=0.5;exitDx=0;exitDy=0;entryX=0;entryY=0.75;entryDx=0;entryDy=0;" parent="jFPj4hk-xVhONk_CJJTi-1" source="FuNunQ9VVVspa1cT3jQB-11" target="FuNunQ9VVVspa1cT3jQB-13" edge="1">
          <mxGeometry width="50" height="50" relative="1" as="geometry">
            <mxPoint x="740" y="525" as="sourcePoint" />
            <mxPoint x="1030" y="480" as="targetPoint" />
          </mxGeometry>
        </mxCell>
        <mxCell id="FuNunQ9VVVspa1cT3jQB-15" value="1" style="ellipse;whiteSpace=wrap;html=1;" parent="jFPj4hk-xVhONk_CJJTi-1" vertex="1">
          <mxGeometry x="430" y="570" width="30" height="30" as="geometry" />
        </mxCell>
        <mxCell id="FuNunQ9VVVspa1cT3jQB-16" value="" style="endArrow=none;html=1;rounded=0;exitX=0;exitY=0.5;exitDx=0;exitDy=0;entryX=1;entryY=0.5;entryDx=0;entryDy=0;" parent="jFPj4hk-xVhONk_CJJTi-1" source="FuNunQ9VVVspa1cT3jQB-11" target="FuNunQ9VVVspa1cT3jQB-15" edge="1">
          <mxGeometry width="50" height="50" relative="1" as="geometry">
            <mxPoint x="670" y="525" as="sourcePoint" />
            <mxPoint x="440" y="425" as="targetPoint" />
          </mxGeometry>
        </mxCell>
        <mxCell id="FuNunQ9VVVspa1cT3jQB-18" value="" style="endArrow=none;html=1;rounded=0;exitX=0.992;exitY=0.367;exitDx=0;exitDy=0;exitPerimeter=0;entryX=0;entryY=0.5;entryDx=0;entryDy=0;" parent="jFPj4hk-xVhONk_CJJTi-1" source="jFPj4hk-xVhONk_CJJTi-19" target="FuNunQ9VVVspa1cT3jQB-15" edge="1">
          <mxGeometry width="50" height="50" relative="1" as="geometry">
            <mxPoint x="720" y="410" as="sourcePoint" />
            <mxPoint x="770" y="360" as="targetPoint" />
          </mxGeometry>
        </mxCell>
        <mxCell id="HnZPJBuXvVFzToJrBTtr-0" value="SubCategory" style="rounded=0;whiteSpace=wrap;html=1;" parent="jFPj4hk-xVhONk_CJJTi-1" vertex="1">
          <mxGeometry x="590" y="800" width="120" height="60" as="geometry" />
        </mxCell>
        <mxCell id="HnZPJBuXvVFzToJrBTtr-1" value="SubCategoryID" style="ellipse;whiteSpace=wrap;html=1;" parent="jFPj4hk-xVhONk_CJJTi-1" vertex="1">
          <mxGeometry x="480" y="875" width="90" height="60" as="geometry" />
        </mxCell>
        <mxCell id="HnZPJBuXvVFzToJrBTtr-2" value="SubCategoryName" style="ellipse;whiteSpace=wrap;html=1;" parent="jFPj4hk-xVhONk_CJJTi-1" vertex="1">
          <mxGeometry x="620" y="890" width="90" height="60" as="geometry" />
        </mxCell>
        <mxCell id="HnZPJBuXvVFzToJrBTtr-3" value="have" style="rhombus;whiteSpace=wrap;html=1;" parent="jFPj4hk-xVhONk_CJJTi-1" vertex="1">
          <mxGeometry x="840" y="760" width="70" height="60" as="geometry" />
        </mxCell>
        <mxCell id="HnZPJBuXvVFzToJrBTtr-4" value="" style="endArrow=none;html=1;rounded=0;entryX=0.5;entryY=1;entryDx=0;entryDy=0;exitX=1;exitY=0.5;exitDx=0;exitDy=0;" parent="jFPj4hk-xVhONk_CJJTi-1" source="HnZPJBuXvVFzToJrBTtr-0" target="HnZPJBuXvVFzToJrBTtr-3" edge="1">
          <mxGeometry width="50" height="50" relative="1" as="geometry">
            <mxPoint x="550" y="810" as="sourcePoint" />
            <mxPoint x="600" y="760" as="targetPoint" />
          </mxGeometry>
        </mxCell>
        <mxCell id="HnZPJBuXvVFzToJrBTtr-5" value="" style="endArrow=none;html=1;rounded=0;entryX=0.5;entryY=1;entryDx=0;entryDy=0;exitX=0.5;exitY=0;exitDx=0;exitDy=0;startArrow=none;" parent="jFPj4hk-xVhONk_CJJTi-1" source="HnZPJBuXvVFzToJrBTtr-6" target="jFPj4hk-xVhONk_CJJTi-34" edge="1">
          <mxGeometry width="50" height="50" relative="1" as="geometry">
            <mxPoint x="550" y="810" as="sourcePoint" />
            <mxPoint x="600" y="760" as="targetPoint" />
          </mxGeometry>
        </mxCell>
        <mxCell id="HnZPJBuXvVFzToJrBTtr-6" value="1" style="ellipse;whiteSpace=wrap;html=1;" parent="jFPj4hk-xVhONk_CJJTi-1" vertex="1">
          <mxGeometry x="980" y="630" width="30" height="30" as="geometry" />
        </mxCell>
        <mxCell id="HnZPJBuXvVFzToJrBTtr-7" value="" style="endArrow=none;html=1;rounded=0;entryX=0.5;entryY=1;entryDx=0;entryDy=0;exitX=0.5;exitY=0;exitDx=0;exitDy=0;" parent="jFPj4hk-xVhONk_CJJTi-1" source="HnZPJBuXvVFzToJrBTtr-3" target="HnZPJBuXvVFzToJrBTtr-6" edge="1">
          <mxGeometry width="50" height="50" relative="1" as="geometry">
            <mxPoint x="945" y="770" as="sourcePoint" />
            <mxPoint x="1000" y="620" as="targetPoint" />
          </mxGeometry>
        </mxCell>
        <mxCell id="HnZPJBuXvVFzToJrBTtr-8" value="M" style="ellipse;whiteSpace=wrap;html=1;" parent="jFPj4hk-xVhONk_CJJTi-1" vertex="1">
          <mxGeometry x="730" y="815" width="30" height="30" as="geometry" />
        </mxCell>
        <mxCell id="HnZPJBuXvVFzToJrBTtr-9" value="" style="endArrow=none;html=1;rounded=0;entryX=0;entryY=1;entryDx=0;entryDy=0;exitX=1;exitY=0;exitDx=0;exitDy=0;" parent="jFPj4hk-xVhONk_CJJTi-1" source="HnZPJBuXvVFzToJrBTtr-1" target="HnZPJBuXvVFzToJrBTtr-0" edge="1">
          <mxGeometry width="50" height="50" relative="1" as="geometry">
            <mxPoint x="550" y="810" as="sourcePoint" />
            <mxPoint x="600" y="760" as="targetPoint" />
          </mxGeometry>
        </mxCell>
        <mxCell id="HnZPJBuXvVFzToJrBTtr-10" value="" style="endArrow=none;html=1;rounded=0;entryX=0.25;entryY=1;entryDx=0;entryDy=0;exitX=0;exitY=0;exitDx=0;exitDy=0;" parent="jFPj4hk-xVhONk_CJJTi-1" source="HnZPJBuXvVFzToJrBTtr-2" target="HnZPJBuXvVFzToJrBTtr-0" edge="1">
          <mxGeometry width="50" height="50" relative="1" as="geometry">
            <mxPoint x="550" y="810" as="sourcePoint" />
            <mxPoint x="600" y="760" as="targetPoint" />
          </mxGeometry>
        </mxCell>
        <mxCell id="HnZPJBuXvVFzToJrBTtr-11" value="SubCategoryID" style="ellipse;whiteSpace=wrap;html=1;" parent="jFPj4hk-xVhONk_CJJTi-1" vertex="1">
          <mxGeometry x="1060" y="680" width="90" height="60" as="geometry" />
        </mxCell>
        <mxCell id="HnZPJBuXvVFzToJrBTtr-12" value="" style="endArrow=none;html=1;rounded=0;entryX=0;entryY=0;entryDx=0;entryDy=0;exitX=0.75;exitY=1;exitDx=0;exitDy=0;" parent="jFPj4hk-xVhONk_CJJTi-1" source="jFPj4hk-xVhONk_CJJTi-34" target="HnZPJBuXvVFzToJrBTtr-11" edge="1">
          <mxGeometry width="50" height="50" relative="1" as="geometry">
            <mxPoint x="550" y="670" as="sourcePoint" />
            <mxPoint x="600" y="620" as="targetPoint" />
          </mxGeometry>
        </mxCell>
        <mxCell id="Fuv5sI6812reoR6EImwe-0" value="Images" style="rounded=0;whiteSpace=wrap;html=1;" vertex="1" parent="jFPj4hk-xVhONk_CJJTi-1">
          <mxGeometry x="60" y="810" width="120" height="60" as="geometry" />
        </mxCell>
        <mxCell id="Fuv5sI6812reoR6EImwe-1" value="ImageId" style="ellipse;whiteSpace=wrap;html=1;" vertex="1" parent="jFPj4hk-xVhONk_CJJTi-1">
          <mxGeometry x="170" y="935" width="90" height="60" as="geometry" />
        </mxCell>
        <mxCell id="Fuv5sI6812reoR6EImwe-2" value="" style="endArrow=classic;html=1;rounded=0;exitX=0;exitY=1;exitDx=0;exitDy=0;entryX=0.5;entryY=0;entryDx=0;entryDy=0;" edge="1" parent="jFPj4hk-xVhONk_CJJTi-1">
          <mxGeometry width="50" height="50" relative="1" as="geometry">
            <mxPoint x="60" y="870" as="sourcePoint" />
            <mxPoint x="35" y="935" as="targetPoint" />
          </mxGeometry>
        </mxCell>
        <mxCell id="Fuv5sI6812reoR6EImwe-3" value="" style="endArrow=classic;html=1;rounded=0;exitX=1;exitY=1;exitDx=0;exitDy=0;entryX=0.5;entryY=0;entryDx=0;entryDy=0;" edge="1" parent="jFPj4hk-xVhONk_CJJTi-1" source="Fuv5sI6812reoR6EImwe-0" target="Fuv5sI6812reoR6EImwe-1">
          <mxGeometry width="50" height="50" relative="1" as="geometry">
            <mxPoint x="70" y="880" as="sourcePoint" />
            <mxPoint x="45" y="945" as="targetPoint" />
          </mxGeometry>
        </mxCell>
        <mxCell id="Fuv5sI6812reoR6EImwe-4" value="have" style="rhombus;whiteSpace=wrap;html=1;" vertex="1" parent="jFPj4hk-xVhONk_CJJTi-1">
          <mxGeometry x="140" y="690" width="70" height="60" as="geometry" />
        </mxCell>
        <mxCell id="Fuv5sI6812reoR6EImwe-5" value="" style="endArrow=none;html=1;rounded=0;exitX=0.5;exitY=0;exitDx=0;exitDy=0;entryX=0.25;entryY=1;entryDx=0;entryDy=0;" edge="1" parent="jFPj4hk-xVhONk_CJJTi-1" source="Fuv5sI6812reoR6EImwe-4" target="jFPj4hk-xVhONk_CJJTi-19">
          <mxGeometry width="50" height="50" relative="1" as="geometry">
            <mxPoint x="590" y="660" as="sourcePoint" />
            <mxPoint x="640" y="610" as="targetPoint" />
          </mxGeometry>
        </mxCell>
        <mxCell id="Fuv5sI6812reoR6EImwe-6" value="" style="endArrow=none;html=1;rounded=0;exitX=0.5;exitY=0;exitDx=0;exitDy=0;entryX=0.5;entryY=1;entryDx=0;entryDy=0;" edge="1" parent="jFPj4hk-xVhONk_CJJTi-1" source="Fuv5sI6812reoR6EImwe-0" target="Fuv5sI6812reoR6EImwe-4">
          <mxGeometry width="50" height="50" relative="1" as="geometry">
            <mxPoint x="590" y="660" as="sourcePoint" />
            <mxPoint x="640" y="610" as="targetPoint" />
          </mxGeometry>
        </mxCell>
        <mxCell id="Fuv5sI6812reoR6EImwe-7" value="ProductID" style="ellipse;whiteSpace=wrap;html=1;" vertex="1" parent="jFPj4hk-xVhONk_CJJTi-1">
          <mxGeometry x="450" y="375" width="90" height="60" as="geometry" />
        </mxCell>
        <mxCell id="Fuv5sI6812reoR6EImwe-8" value="" style="endArrow=classic;html=1;rounded=0;exitX=0;exitY=0;exitDx=0;exitDy=0;" edge="1" parent="jFPj4hk-xVhONk_CJJTi-1" target="Fuv5sI6812reoR6EImwe-7" source="jFPj4hk-xVhONk_CJJTi-64">
          <mxGeometry width="50" height="50" relative="1" as="geometry">
            <mxPoint x="640" y="375" as="sourcePoint" />
            <mxPoint x="793.1801948466054" y="703.7867965644036" as="targetPoint" />
          </mxGeometry>
        </mxCell>
        <mxCell id="Fuv5sI6812reoR6EImwe-9" value="OrderdeatilId" style="ellipse;whiteSpace=wrap;html=1;" vertex="1" parent="jFPj4hk-xVhONk_CJJTi-1">
          <mxGeometry x="520" y="300" width="90" height="60" as="geometry" />
        </mxCell>
        <mxCell id="Fuv5sI6812reoR6EImwe-10" value="" style="endArrow=classic;html=1;rounded=0;" edge="1" parent="jFPj4hk-xVhONk_CJJTi-1" target="Fuv5sI6812reoR6EImwe-9" source="jFPj4hk-xVhONk_CJJTi-64">
          <mxGeometry width="50" height="50" relative="1" as="geometry">
            <mxPoint x="683.6235211267605" y="410.0012676056338" as="sourcePoint" />
            <mxPoint x="869.5501948466055" y="658.5767965644036" as="targetPoint" />
          </mxGeometry>
        </mxCell>
        <mxCell id="Fuv5sI6812reoR6EImwe-11" value="OrderId" style="ellipse;whiteSpace=wrap;html=1;" vertex="1" parent="jFPj4hk-xVhONk_CJJTi-1">
          <mxGeometry x="630" y="300" width="90" height="60" as="geometry" />
        </mxCell>
        <mxCell id="Fuv5sI6812reoR6EImwe-12" value="" style="endArrow=classic;html=1;rounded=0;" edge="1" parent="jFPj4hk-xVhONk_CJJTi-1" target="Fuv5sI6812reoR6EImwe-11" source="jFPj4hk-xVhONk_CJJTi-64">
          <mxGeometry width="50" height="50" relative="1" as="geometry">
            <mxPoint x="711.8580903714214" y="482.90306539592456" as="sourcePoint" />
            <mxPoint x="959.5501948466055" y="698.7867965644036" as="targetPoint" />
          </mxGeometry>
        </mxCell>
        <mxCell id="Fuv5sI6812reoR6EImwe-13" value="OrderId" style="ellipse;whiteSpace=wrap;html=1;" vertex="1" parent="jFPj4hk-xVhONk_CJJTi-1">
          <mxGeometry x="730" y="90.00000000000001" width="90" height="60" as="geometry" />
        </mxCell>
        <mxCell id="Fuv5sI6812reoR6EImwe-14" value="" style="endArrow=classic;html=1;rounded=0;exitX=0.133;exitY=0.017;exitDx=0;exitDy=0;exitPerimeter=0;" edge="1" parent="jFPj4hk-xVhONk_CJJTi-1" target="Fuv5sI6812reoR6EImwe-13" source="jFPj4hk-xVhONk_CJJTi-39">
          <mxGeometry width="50" height="50" relative="1" as="geometry">
            <mxPoint x="720.0001637435043" y="189.99728320871804" as="sourcePoint" />
            <mxPoint x="1038.7801948466054" y="435.26679656440365" as="targetPoint" />
          </mxGeometry>
        </mxCell>
        <mxCell id="Fuv5sI6812reoR6EImwe-17" value="OrderDate" style="ellipse;whiteSpace=wrap;html=1;" vertex="1" parent="jFPj4hk-xVhONk_CJJTi-1">
          <mxGeometry x="1070" y="44.01" width="90" height="60" as="geometry" />
        </mxCell>
        <mxCell id="Fuv5sI6812reoR6EImwe-18" value="" style="endArrow=classic;html=1;rounded=0;" edge="1" parent="jFPj4hk-xVhONk_CJJTi-1" target="Fuv5sI6812reoR6EImwe-17" source="jFPj4hk-xVhONk_CJJTi-39">
          <mxGeometry width="50" height="50" relative="1" as="geometry">
            <mxPoint x="990" y="105" as="sourcePoint" />
            <mxPoint x="1050" y="420" as="targetPoint" />
          </mxGeometry>
        </mxCell>
        <mxCell id="Fuv5sI6812reoR6EImwe-20" value="Receiver" style="ellipse;whiteSpace=wrap;html=1;" vertex="1" parent="jFPj4hk-xVhONk_CJJTi-1">
          <mxGeometry x="790" y="40" width="90" height="60" as="geometry" />
        </mxCell>
        <mxCell id="Fuv5sI6812reoR6EImwe-21" value="" style="endArrow=classic;html=1;rounded=0;exitX=0.2;exitY=0.033;exitDx=0;exitDy=0;exitPerimeter=0;" edge="1" parent="jFPj4hk-xVhONk_CJJTi-1" target="Fuv5sI6812reoR6EImwe-20" source="jFPj4hk-xVhONk_CJJTi-39">
          <mxGeometry width="50" height="50" relative="1" as="geometry">
            <mxPoint x="970" y="35" as="sourcePoint" />
            <mxPoint x="1030" y="350" as="targetPoint" />
          </mxGeometry>
        </mxCell>
        <mxCell id="Fuv5sI6812reoR6EImwe-22" value="ReceiverContact" style="ellipse;whiteSpace=wrap;html=1;" vertex="1" parent="jFPj4hk-xVhONk_CJJTi-1">
          <mxGeometry x="860" y="-9.999999999999995" width="90" height="60" as="geometry" />
        </mxCell>
        <mxCell id="Fuv5sI6812reoR6EImwe-23" value="" style="endArrow=classic;html=1;rounded=0;exitX=0.333;exitY=0;exitDx=0;exitDy=0;exitPerimeter=0;" edge="1" parent="jFPj4hk-xVhONk_CJJTi-1" target="Fuv5sI6812reoR6EImwe-22" source="jFPj4hk-xVhONk_CJJTi-39">
          <mxGeometry width="50" height="50" relative="1" as="geometry">
            <mxPoint x="997" y="175.99" as="sourcePoint" />
            <mxPoint x="1093" y="294.01" as="targetPoint" />
          </mxGeometry>
        </mxCell>
        <mxCell id="Fuv5sI6812reoR6EImwe-24" value="Address/City/Postalcode" style="ellipse;whiteSpace=wrap;html=1;" vertex="1" parent="jFPj4hk-xVhONk_CJJTi-1">
          <mxGeometry x="980" y="-9.999999999999993" width="90" height="60" as="geometry" />
        </mxCell>
        <mxCell id="Fuv5sI6812reoR6EImwe-25" value="" style="endArrow=classic;html=1;rounded=0;exitX=0.5;exitY=0;exitDx=0;exitDy=0;" edge="1" parent="jFPj4hk-xVhONk_CJJTi-1" target="Fuv5sI6812reoR6EImwe-24" source="jFPj4hk-xVhONk_CJJTi-39">
          <mxGeometry width="50" height="50" relative="1" as="geometry">
            <mxPoint x="944.98" y="230.00000000000003" as="sourcePoint" />
            <mxPoint x="1188.02" y="275.03" as="targetPoint" />
          </mxGeometry>
        </mxCell>
        <mxCell id="Fuv5sI6812reoR6EImwe-27" value="Quentity" style="ellipse;whiteSpace=wrap;html=1;" vertex="1" parent="jFPj4hk-xVhONk_CJJTi-1">
          <mxGeometry x="480" y="495" width="90" height="60" as="geometry" />
        </mxCell>
        <mxCell id="Fuv5sI6812reoR6EImwe-28" value="" style="endArrow=classic;html=1;rounded=0;" edge="1" parent="jFPj4hk-xVhONk_CJJTi-1" target="Fuv5sI6812reoR6EImwe-27" source="jFPj4hk-xVhONk_CJJTi-64">
          <mxGeometry width="50" height="50" relative="1" as="geometry">
            <mxPoint x="454.4001637435043" y="518.5172832087178" as="sourcePoint" />
            <mxPoint x="773.1801948466054" y="763.7867965644036" as="targetPoint" />
          </mxGeometry>
        </mxCell>
        <mxCell id="Fuv5sI6812reoR6EImwe-29" value="Unit price" style="ellipse;whiteSpace=wrap;html=1;" vertex="1" parent="jFPj4hk-xVhONk_CJJTi-1">
          <mxGeometry x="700" y="435" width="90" height="60" as="geometry" />
        </mxCell>
        <mxCell id="Fuv5sI6812reoR6EImwe-30" value="" style="endArrow=classic;html=1;rounded=0;exitX=1;exitY=1;exitDx=0;exitDy=0;" edge="1" parent="jFPj4hk-xVhONk_CJJTi-1" target="Fuv5sI6812reoR6EImwe-29" source="jFPj4hk-xVhONk_CJJTi-64">
          <mxGeometry width="50" height="50" relative="1" as="geometry">
            <mxPoint x="784.4261538461539" y="450.0038461538462" as="sourcePoint" />
            <mxPoint x="948.7601948466055" y="727.6367965644037" as="targetPoint" />
          </mxGeometry>
        </mxCell>
        <mxCell id="Fuv5sI6812reoR6EImwe-31" value="Product Amount" style="ellipse;whiteSpace=wrap;html=1;" vertex="1" parent="jFPj4hk-xVhONk_CJJTi-1">
          <mxGeometry x="591.5400000000001" y="500" width="90" height="60" as="geometry" />
        </mxCell>
        <mxCell id="Fuv5sI6812reoR6EImwe-32" value="" style="endArrow=classic;html=1;rounded=0;exitX=0.5;exitY=1;exitDx=0;exitDy=0;" edge="1" parent="jFPj4hk-xVhONk_CJJTi-1" target="Fuv5sI6812reoR6EImwe-31" source="jFPj4hk-xVhONk_CJJTi-64">
          <mxGeometry width="50" height="50" relative="1" as="geometry">
            <mxPoint x="548.46" y="511.15" as="sourcePoint" />
            <mxPoint x="854.7201948466055" y="753.7867965644036" as="targetPoint" />
          </mxGeometry>
        </mxCell>
        <mxCell id="Fuv5sI6812reoR6EImwe-33" style="edgeStyle=orthogonalEdgeStyle;rounded=0;orthogonalLoop=1;jettySize=auto;html=1;exitX=0.5;exitY=1;exitDx=0;exitDy=0;" edge="1" parent="jFPj4hk-xVhONk_CJJTi-1" source="Fuv5sI6812reoR6EImwe-27" target="Fuv5sI6812reoR6EImwe-27">
          <mxGeometry relative="1" as="geometry" />
        </mxCell>
      </root>
    </mxGraphModel>
  </diagram>
  <diagram id="EN-9u3vNTyxNOHtYqWF9" name="Page-3">
    <mxGraphModel dx="1662" dy="754" grid="1" gridSize="10" guides="1" tooltips="1" connect="1" arrows="1" fold="1" page="1" pageScale="1" pageWidth="1200" pageHeight="1600" math="0" shadow="0">
      <root>
        <mxCell id="a5PGAm09jIwH3UO00iZv-0" />
        <mxCell id="a5PGAm09jIwH3UO00iZv-1" parent="a5PGAm09jIwH3UO00iZv-0" />
        <mxCell id="QrFVo9G-E2JHN8yqlYp3-72" value="Orders" style="shape=table;startSize=30;container=1;collapsible=1;childLayout=tableLayout;fixedRows=1;rowLines=0;fontStyle=1;align=center;resizeLast=1;" vertex="1" parent="a5PGAm09jIwH3UO00iZv-1">
          <mxGeometry x="520" y="70" width="250" height="130" as="geometry" />
        </mxCell>
        <mxCell id="QrFVo9G-E2JHN8yqlYp3-73" value="" style="shape=partialRectangle;collapsible=0;dropTarget=0;pointerEvents=0;fillColor=none;points=[[0,0.5],[1,0.5]];portConstraint=eastwest;top=0;left=0;right=0;bottom=1;" vertex="1" parent="QrFVo9G-E2JHN8yqlYp3-72">
          <mxGeometry y="30" width="250" height="30" as="geometry" />
        </mxCell>
        <mxCell id="QrFVo9G-E2JHN8yqlYp3-74" value="PK" style="shape=partialRectangle;overflow=hidden;connectable=0;fillColor=none;top=0;left=0;bottom=0;right=0;fontStyle=1;" vertex="1" parent="QrFVo9G-E2JHN8yqlYp3-73">
          <mxGeometry width="30" height="30" as="geometry">
            <mxRectangle width="30" height="30" as="alternateBounds" />
          </mxGeometry>
        </mxCell>
        <mxCell id="QrFVo9G-E2JHN8yqlYp3-75" value="order_id int NOT NULL " style="shape=partialRectangle;overflow=hidden;connectable=0;fillColor=none;top=0;left=0;bottom=0;right=0;align=left;spacingLeft=6;fontStyle=5;" vertex="1" parent="QrFVo9G-E2JHN8yqlYp3-73">
          <mxGeometry x="30" width="220" height="30" as="geometry">
            <mxRectangle width="220" height="30" as="alternateBounds" />
          </mxGeometry>
        </mxCell>
        <mxCell id="QrFVo9G-E2JHN8yqlYp3-76" value="" style="shape=partialRectangle;collapsible=0;dropTarget=0;pointerEvents=0;fillColor=none;points=[[0,0.5],[1,0.5]];portConstraint=eastwest;top=0;left=0;right=0;bottom=0;" vertex="1" parent="QrFVo9G-E2JHN8yqlYp3-72">
          <mxGeometry y="60" width="250" height="30" as="geometry" />
        </mxCell>
        <mxCell id="QrFVo9G-E2JHN8yqlYp3-77" value="FK1" style="shape=partialRectangle;overflow=hidden;connectable=0;fillColor=none;top=0;left=0;bottom=0;right=0;" vertex="1" parent="QrFVo9G-E2JHN8yqlYp3-76">
          <mxGeometry width="30" height="30" as="geometry">
            <mxRectangle width="30" height="30" as="alternateBounds" />
          </mxGeometry>
        </mxCell>
        <mxCell id="QrFVo9G-E2JHN8yqlYp3-78" value="user_id int NOT NULL" style="shape=partialRectangle;overflow=hidden;connectable=0;fillColor=none;top=0;left=0;bottom=0;right=0;align=left;spacingLeft=6;" vertex="1" parent="QrFVo9G-E2JHN8yqlYp3-76">
          <mxGeometry x="30" width="220" height="30" as="geometry">
            <mxRectangle width="220" height="30" as="alternateBounds" />
          </mxGeometry>
        </mxCell>
        <mxCell id="QrFVo9G-E2JHN8yqlYp3-79" value="" style="shape=partialRectangle;collapsible=0;dropTarget=0;pointerEvents=0;fillColor=none;points=[[0,0.5],[1,0.5]];portConstraint=eastwest;top=0;left=0;right=0;bottom=0;" vertex="1" parent="QrFVo9G-E2JHN8yqlYp3-72">
          <mxGeometry y="90" width="250" height="30" as="geometry" />
        </mxCell>
        <mxCell id="QrFVo9G-E2JHN8yqlYp3-80" value="" style="shape=partialRectangle;overflow=hidden;connectable=0;fillColor=none;top=0;left=0;bottom=0;right=0;" vertex="1" parent="QrFVo9G-E2JHN8yqlYp3-79">
          <mxGeometry width="30" height="30" as="geometry">
            <mxRectangle width="30" height="30" as="alternateBounds" />
          </mxGeometry>
        </mxCell>
        <mxCell id="QrFVo9G-E2JHN8yqlYp3-81" value="product_id NOT NULL" style="shape=partialRectangle;overflow=hidden;connectable=0;fillColor=none;top=0;left=0;bottom=0;right=0;align=left;spacingLeft=6;" vertex="1" parent="QrFVo9G-E2JHN8yqlYp3-79">
          <mxGeometry x="30" width="220" height="30" as="geometry">
            <mxRectangle width="220" height="30" as="alternateBounds" />
          </mxGeometry>
        </mxCell>
        <mxCell id="QrFVo9G-E2JHN8yqlYp3-82" value="Shopping" style="shape=table;startSize=30;container=1;collapsible=1;childLayout=tableLayout;fixedRows=1;rowLines=0;fontStyle=1;align=center;resizeLast=1;" vertex="1" parent="a5PGAm09jIwH3UO00iZv-1">
          <mxGeometry x="520" y="340" width="250" height="130" as="geometry" />
        </mxCell>
        <mxCell id="QrFVo9G-E2JHN8yqlYp3-83" value="" style="shape=partialRectangle;collapsible=0;dropTarget=0;pointerEvents=0;fillColor=none;points=[[0,0.5],[1,0.5]];portConstraint=eastwest;top=0;left=0;right=0;bottom=1;" vertex="1" parent="QrFVo9G-E2JHN8yqlYp3-82">
          <mxGeometry y="30" width="250" height="30" as="geometry" />
        </mxCell>
        <mxCell id="QrFVo9G-E2JHN8yqlYp3-84" value="PK" style="shape=partialRectangle;overflow=hidden;connectable=0;fillColor=none;top=0;left=0;bottom=0;right=0;fontStyle=1;" vertex="1" parent="QrFVo9G-E2JHN8yqlYp3-83">
          <mxGeometry width="30" height="30" as="geometry">
            <mxRectangle width="30" height="30" as="alternateBounds" />
          </mxGeometry>
        </mxCell>
        <mxCell id="QrFVo9G-E2JHN8yqlYp3-85" value="shopping_id int NOT NULL " style="shape=partialRectangle;overflow=hidden;connectable=0;fillColor=none;top=0;left=0;bottom=0;right=0;align=left;spacingLeft=6;fontStyle=5;" vertex="1" parent="QrFVo9G-E2JHN8yqlYp3-83">
          <mxGeometry x="30" width="220" height="30" as="geometry">
            <mxRectangle width="220" height="30" as="alternateBounds" />
          </mxGeometry>
        </mxCell>
        <mxCell id="QrFVo9G-E2JHN8yqlYp3-86" value="" style="shape=partialRectangle;collapsible=0;dropTarget=0;pointerEvents=0;fillColor=none;points=[[0,0.5],[1,0.5]];portConstraint=eastwest;top=0;left=0;right=0;bottom=0;" vertex="1" parent="QrFVo9G-E2JHN8yqlYp3-82">
          <mxGeometry y="60" width="250" height="30" as="geometry" />
        </mxCell>
        <mxCell id="QrFVo9G-E2JHN8yqlYp3-87" value="FK1" style="shape=partialRectangle;overflow=hidden;connectable=0;fillColor=none;top=0;left=0;bottom=0;right=0;" vertex="1" parent="QrFVo9G-E2JHN8yqlYp3-86">
          <mxGeometry width="30" height="30" as="geometry">
            <mxRectangle width="30" height="30" as="alternateBounds" />
          </mxGeometry>
        </mxCell>
        <mxCell id="QrFVo9G-E2JHN8yqlYp3-88" value="user_id int NOT NULL" style="shape=partialRectangle;overflow=hidden;connectable=0;fillColor=none;top=0;left=0;bottom=0;right=0;align=left;spacingLeft=6;" vertex="1" parent="QrFVo9G-E2JHN8yqlYp3-86">
          <mxGeometry x="30" width="220" height="30" as="geometry">
            <mxRectangle width="220" height="30" as="alternateBounds" />
          </mxGeometry>
        </mxCell>
        <mxCell id="QrFVo9G-E2JHN8yqlYp3-89" value="" style="shape=partialRectangle;collapsible=0;dropTarget=0;pointerEvents=0;fillColor=none;points=[[0,0.5],[1,0.5]];portConstraint=eastwest;top=0;left=0;right=0;bottom=0;" vertex="1" parent="QrFVo9G-E2JHN8yqlYp3-82">
          <mxGeometry y="90" width="250" height="30" as="geometry" />
        </mxCell>
        <mxCell id="QrFVo9G-E2JHN8yqlYp3-90" value="" style="shape=partialRectangle;overflow=hidden;connectable=0;fillColor=none;top=0;left=0;bottom=0;right=0;" vertex="1" parent="QrFVo9G-E2JHN8yqlYp3-89">
          <mxGeometry width="30" height="30" as="geometry">
            <mxRectangle width="30" height="30" as="alternateBounds" />
          </mxGeometry>
        </mxCell>
        <mxCell id="QrFVo9G-E2JHN8yqlYp3-91" value="" style="shape=partialRectangle;overflow=hidden;connectable=0;fillColor=none;top=0;left=0;bottom=0;right=0;align=left;spacingLeft=6;" vertex="1" parent="QrFVo9G-E2JHN8yqlYp3-89">
          <mxGeometry x="30" width="220" height="30" as="geometry">
            <mxRectangle width="220" height="30" as="alternateBounds" />
          </mxGeometry>
        </mxCell>
        <mxCell id="QrFVo9G-E2JHN8yqlYp3-92" value="User" style="shape=table;startSize=30;container=1;collapsible=1;childLayout=tableLayout;fixedRows=1;rowLines=0;fontStyle=1;align=center;resizeLast=1;" vertex="1" parent="a5PGAm09jIwH3UO00iZv-1">
          <mxGeometry x="130" y="120" width="250" height="250" as="geometry" />
        </mxCell>
        <mxCell id="QrFVo9G-E2JHN8yqlYp3-93" value="" style="shape=partialRectangle;collapsible=0;dropTarget=0;pointerEvents=0;fillColor=none;points=[[0,0.5],[1,0.5]];portConstraint=eastwest;top=0;left=0;right=0;bottom=1;" vertex="1" parent="QrFVo9G-E2JHN8yqlYp3-92">
          <mxGeometry y="30" width="250" height="30" as="geometry" />
        </mxCell>
        <mxCell id="QrFVo9G-E2JHN8yqlYp3-94" value="PK" style="shape=partialRectangle;overflow=hidden;connectable=0;fillColor=none;top=0;left=0;bottom=0;right=0;fontStyle=1;" vertex="1" parent="QrFVo9G-E2JHN8yqlYp3-93">
          <mxGeometry width="30" height="30" as="geometry">
            <mxRectangle width="30" height="30" as="alternateBounds" />
          </mxGeometry>
        </mxCell>
        <mxCell id="QrFVo9G-E2JHN8yqlYp3-95" value="user_id int NOT NULL " style="shape=partialRectangle;overflow=hidden;connectable=0;fillColor=none;top=0;left=0;bottom=0;right=0;align=left;spacingLeft=6;fontStyle=5;" vertex="1" parent="QrFVo9G-E2JHN8yqlYp3-93">
          <mxGeometry x="30" width="220" height="30" as="geometry">
            <mxRectangle width="220" height="30" as="alternateBounds" />
          </mxGeometry>
        </mxCell>
        <mxCell id="QrFVo9G-E2JHN8yqlYp3-96" value="" style="shape=partialRectangle;collapsible=0;dropTarget=0;pointerEvents=0;fillColor=none;points=[[0,0.5],[1,0.5]];portConstraint=eastwest;top=0;left=0;right=0;bottom=0;" vertex="1" parent="QrFVo9G-E2JHN8yqlYp3-92">
          <mxGeometry y="60" width="250" height="30" as="geometry" />
        </mxCell>
        <mxCell id="QrFVo9G-E2JHN8yqlYp3-97" value="" style="shape=partialRectangle;overflow=hidden;connectable=0;fillColor=none;top=0;left=0;bottom=0;right=0;" vertex="1" parent="QrFVo9G-E2JHN8yqlYp3-96">
          <mxGeometry width="30" height="30" as="geometry">
            <mxRectangle width="30" height="30" as="alternateBounds" />
          </mxGeometry>
        </mxCell>
        <mxCell id="QrFVo9G-E2JHN8yqlYp3-98" value="first_name char(50) NOT NULL" style="shape=partialRectangle;overflow=hidden;connectable=0;fillColor=none;top=0;left=0;bottom=0;right=0;align=left;spacingLeft=6;" vertex="1" parent="QrFVo9G-E2JHN8yqlYp3-96">
          <mxGeometry x="30" width="220" height="30" as="geometry">
            <mxRectangle width="220" height="30" as="alternateBounds" />
          </mxGeometry>
        </mxCell>
        <mxCell id="QrFVo9G-E2JHN8yqlYp3-99" value="last_name char(50) NOT NULL" style="shape=partialRectangle;overflow=hidden;connectable=0;fillColor=none;top=0;left=0;bottom=0;right=0;align=left;spacingLeft=6;" vertex="1" parent="a5PGAm09jIwH3UO00iZv-1">
          <mxGeometry x="160" y="210" width="220" height="30" as="geometry">
            <mxRectangle width="220" height="30" as="alternateBounds" />
          </mxGeometry>
        </mxCell>
        <mxCell id="QrFVo9G-E2JHN8yqlYp3-100" value="password char(50) NOT NULL" style="shape=partialRectangle;overflow=hidden;connectable=0;fillColor=none;top=0;left=0;bottom=0;right=0;align=left;spacingLeft=6;" vertex="1" parent="a5PGAm09jIwH3UO00iZv-1">
          <mxGeometry x="160" y="240" width="220" height="30" as="geometry">
            <mxRectangle width="220" height="30" as="alternateBounds" />
          </mxGeometry>
        </mxCell>
        <mxCell id="QrFVo9G-E2JHN8yqlYp3-101" value="email char(150) NOT NULL" style="shape=partialRectangle;overflow=hidden;connectable=0;fillColor=none;top=0;left=0;bottom=0;right=0;align=left;spacingLeft=6;" vertex="1" parent="a5PGAm09jIwH3UO00iZv-1">
          <mxGeometry x="160" y="270" width="220" height="30" as="geometry">
            <mxRectangle width="220" height="30" as="alternateBounds" />
          </mxGeometry>
        </mxCell>
        <mxCell id="QrFVo9G-E2JHN8yqlYp3-102" value="contact char(20) " style="shape=partialRectangle;overflow=hidden;connectable=0;fillColor=none;top=0;left=0;bottom=0;right=0;align=left;spacingLeft=6;" vertex="1" parent="a5PGAm09jIwH3UO00iZv-1">
          <mxGeometry x="160" y="300" width="220" height="30" as="geometry">
            <mxRectangle width="220" height="30" as="alternateBounds" />
          </mxGeometry>
        </mxCell>
        <mxCell id="QrFVo9G-E2JHN8yqlYp3-103" value="address char(250) " style="shape=partialRectangle;overflow=hidden;connectable=0;fillColor=none;top=0;left=0;bottom=0;right=0;align=left;spacingLeft=6;" vertex="1" parent="a5PGAm09jIwH3UO00iZv-1">
          <mxGeometry x="160" y="330" width="220" height="30" as="geometry">
            <mxRectangle width="220" height="30" as="alternateBounds" />
          </mxGeometry>
        </mxCell>
        <mxCell id="QrFVo9G-E2JHN8yqlYp3-104" value="Product" style="shape=table;startSize=30;container=1;collapsible=1;childLayout=tableLayout;fixedRows=1;rowLines=0;fontStyle=1;align=center;resizeLast=1;" vertex="1" parent="a5PGAm09jIwH3UO00iZv-1">
          <mxGeometry x="130" y="430" width="250" height="240" as="geometry" />
        </mxCell>
        <mxCell id="QrFVo9G-E2JHN8yqlYp3-105" value="" style="shape=partialRectangle;collapsible=0;dropTarget=0;pointerEvents=0;fillColor=none;points=[[0,0.5],[1,0.5]];portConstraint=eastwest;top=0;left=0;right=0;bottom=1;" vertex="1" parent="QrFVo9G-E2JHN8yqlYp3-104">
          <mxGeometry y="30" width="250" height="30" as="geometry" />
        </mxCell>
        <mxCell id="QrFVo9G-E2JHN8yqlYp3-106" value="PK" style="shape=partialRectangle;overflow=hidden;connectable=0;fillColor=none;top=0;left=0;bottom=0;right=0;fontStyle=1;" vertex="1" parent="QrFVo9G-E2JHN8yqlYp3-105">
          <mxGeometry width="30" height="30" as="geometry">
            <mxRectangle width="30" height="30" as="alternateBounds" />
          </mxGeometry>
        </mxCell>
        <mxCell id="QrFVo9G-E2JHN8yqlYp3-107" value="product_id int NOT NULL " style="shape=partialRectangle;overflow=hidden;connectable=0;fillColor=none;top=0;left=0;bottom=0;right=0;align=left;spacingLeft=6;fontStyle=5;" vertex="1" parent="QrFVo9G-E2JHN8yqlYp3-105">
          <mxGeometry x="30" width="220" height="30" as="geometry">
            <mxRectangle width="220" height="30" as="alternateBounds" />
          </mxGeometry>
        </mxCell>
        <mxCell id="QrFVo9G-E2JHN8yqlYp3-108" value="" style="shape=partialRectangle;collapsible=0;dropTarget=0;pointerEvents=0;fillColor=none;points=[[0,0.5],[1,0.5]];portConstraint=eastwest;top=0;left=0;right=0;bottom=0;" vertex="1" parent="QrFVo9G-E2JHN8yqlYp3-104">
          <mxGeometry y="60" width="250" height="30" as="geometry" />
        </mxCell>
        <mxCell id="QrFVo9G-E2JHN8yqlYp3-109" value="" style="shape=partialRectangle;overflow=hidden;connectable=0;fillColor=none;top=0;left=0;bottom=0;right=0;" vertex="1" parent="QrFVo9G-E2JHN8yqlYp3-108">
          <mxGeometry width="30" height="30" as="geometry">
            <mxRectangle width="30" height="30" as="alternateBounds" />
          </mxGeometry>
        </mxCell>
        <mxCell id="QrFVo9G-E2JHN8yqlYp3-110" value="product_name char(50) NOT NULL" style="shape=partialRectangle;overflow=hidden;connectable=0;fillColor=none;top=0;left=0;bottom=0;right=0;align=left;spacingLeft=6;" vertex="1" parent="QrFVo9G-E2JHN8yqlYp3-108">
          <mxGeometry x="30" width="220" height="30" as="geometry">
            <mxRectangle width="220" height="30" as="alternateBounds" />
          </mxGeometry>
        </mxCell>
        <mxCell id="QrFVo9G-E2JHN8yqlYp3-111" value="product_description char(300) " style="shape=partialRectangle;overflow=hidden;connectable=0;fillColor=none;top=0;left=0;bottom=0;right=0;align=left;spacingLeft=6;" vertex="1" parent="a5PGAm09jIwH3UO00iZv-1">
          <mxGeometry x="160" y="520" width="220" height="30" as="geometry">
            <mxRectangle width="220" height="30" as="alternateBounds" />
          </mxGeometry>
        </mxCell>
        <mxCell id="QrFVo9G-E2JHN8yqlYp3-112" value="image char(max)" style="shape=partialRectangle;overflow=hidden;connectable=0;fillColor=none;top=0;left=0;bottom=0;right=0;align=left;spacingLeft=6;" vertex="1" parent="a5PGAm09jIwH3UO00iZv-1">
          <mxGeometry x="160" y="550" width="220" height="30" as="geometry">
            <mxRectangle width="220" height="30" as="alternateBounds" />
          </mxGeometry>
        </mxCell>
        <mxCell id="QrFVo9G-E2JHN8yqlYp3-113" value="price decimal(18,2)" style="shape=partialRectangle;overflow=hidden;connectable=0;fillColor=none;top=0;left=0;bottom=0;right=0;align=left;spacingLeft=6;" vertex="1" parent="a5PGAm09jIwH3UO00iZv-1">
          <mxGeometry x="160" y="580" width="220" height="30" as="geometry">
            <mxRectangle width="220" height="30" as="alternateBounds" />
          </mxGeometry>
        </mxCell>
        <mxCell id="QrFVo9G-E2JHN8yqlYp3-114" value="quentity int" style="shape=partialRectangle;overflow=hidden;connectable=0;fillColor=none;top=0;left=0;bottom=0;right=0;align=left;spacingLeft=6;" vertex="1" parent="a5PGAm09jIwH3UO00iZv-1">
          <mxGeometry x="160" y="610" width="220" height="30" as="geometry">
            <mxRectangle width="220" height="30" as="alternateBounds" />
          </mxGeometry>
        </mxCell>
        <mxCell id="QrFVo9G-E2JHN8yqlYp3-115" value="category_id int NOT NULL" style="shape=partialRectangle;overflow=hidden;connectable=0;fillColor=none;top=0;left=0;bottom=0;right=0;align=left;spacingLeft=6;" vertex="1" parent="a5PGAm09jIwH3UO00iZv-1">
          <mxGeometry x="160" y="640" width="220" height="30" as="geometry">
            <mxRectangle width="220" height="30" as="alternateBounds" />
          </mxGeometry>
        </mxCell>
        <mxCell id="QrFVo9G-E2JHN8yqlYp3-116" value="FK1" style="shape=partialRectangle;overflow=hidden;connectable=0;fillColor=none;top=0;left=0;bottom=0;right=0;" vertex="1" parent="a5PGAm09jIwH3UO00iZv-1">
          <mxGeometry x="130" y="640" width="30" height="30" as="geometry">
            <mxRectangle width="30" height="30" as="alternateBounds" />
          </mxGeometry>
        </mxCell>
        <mxCell id="QrFVo9G-E2JHN8yqlYp3-117" value="FK2" style="shape=partialRectangle;overflow=hidden;connectable=0;fillColor=none;top=0;left=0;bottom=0;right=0;" vertex="1" parent="a5PGAm09jIwH3UO00iZv-1">
          <mxGeometry x="520" y="160" width="30" height="30" as="geometry">
            <mxRectangle width="30" height="30" as="alternateBounds" />
          </mxGeometry>
        </mxCell>
        <mxCell id="QrFVo9G-E2JHN8yqlYp3-118" value="" style="shape=partialRectangle;collapsible=0;dropTarget=0;pointerEvents=0;fillColor=none;points=[[0,0.5],[1,0.5]];portConstraint=eastwest;top=0;left=0;right=0;bottom=0;" vertex="1" parent="a5PGAm09jIwH3UO00iZv-1">
          <mxGeometry x="520" y="430" width="250" height="30" as="geometry" />
        </mxCell>
        <mxCell id="QrFVo9G-E2JHN8yqlYp3-119" value="FK2" style="shape=partialRectangle;overflow=hidden;connectable=0;fillColor=none;top=0;left=0;bottom=0;right=0;" vertex="1" parent="QrFVo9G-E2JHN8yqlYp3-118">
          <mxGeometry width="30" height="30" as="geometry">
            <mxRectangle width="30" height="30" as="alternateBounds" />
          </mxGeometry>
        </mxCell>
        <mxCell id="QrFVo9G-E2JHN8yqlYp3-120" value="cart_id int NOT NULL" style="shape=partialRectangle;overflow=hidden;connectable=0;fillColor=none;top=0;left=0;bottom=0;right=0;align=left;spacingLeft=6;" vertex="1" parent="QrFVo9G-E2JHN8yqlYp3-118">
          <mxGeometry x="30" width="220" height="30" as="geometry">
            <mxRectangle width="220" height="30" as="alternateBounds" />
          </mxGeometry>
        </mxCell>
        <mxCell id="QrFVo9G-E2JHN8yqlYp3-121" value="Cart" style="shape=table;startSize=30;container=1;collapsible=1;childLayout=tableLayout;fixedRows=1;rowLines=0;fontStyle=1;align=center;resizeLast=1;" vertex="1" parent="a5PGAm09jIwH3UO00iZv-1">
          <mxGeometry x="880" y="120" width="250" height="180" as="geometry" />
        </mxCell>
        <mxCell id="QrFVo9G-E2JHN8yqlYp3-122" value="" style="shape=partialRectangle;collapsible=0;dropTarget=0;pointerEvents=0;fillColor=none;points=[[0,0.5],[1,0.5]];portConstraint=eastwest;top=0;left=0;right=0;bottom=1;" vertex="1" parent="QrFVo9G-E2JHN8yqlYp3-121">
          <mxGeometry y="30" width="250" height="30" as="geometry" />
        </mxCell>
        <mxCell id="QrFVo9G-E2JHN8yqlYp3-123" value="PK" style="shape=partialRectangle;overflow=hidden;connectable=0;fillColor=none;top=0;left=0;bottom=0;right=0;fontStyle=1;" vertex="1" parent="QrFVo9G-E2JHN8yqlYp3-122">
          <mxGeometry width="30" height="30" as="geometry">
            <mxRectangle width="30" height="30" as="alternateBounds" />
          </mxGeometry>
        </mxCell>
        <mxCell id="QrFVo9G-E2JHN8yqlYp3-124" value="cart_id int NOT NULL " style="shape=partialRectangle;overflow=hidden;connectable=0;fillColor=none;top=0;left=0;bottom=0;right=0;align=left;spacingLeft=6;fontStyle=5;" vertex="1" parent="QrFVo9G-E2JHN8yqlYp3-122">
          <mxGeometry x="30" width="220" height="30" as="geometry">
            <mxRectangle width="220" height="30" as="alternateBounds" />
          </mxGeometry>
        </mxCell>
        <mxCell id="QrFVo9G-E2JHN8yqlYp3-125" value="" style="shape=partialRectangle;collapsible=0;dropTarget=0;pointerEvents=0;fillColor=none;points=[[0,0.5],[1,0.5]];portConstraint=eastwest;top=0;left=0;right=0;bottom=0;" vertex="1" parent="QrFVo9G-E2JHN8yqlYp3-121">
          <mxGeometry y="60" width="250" height="30" as="geometry" />
        </mxCell>
        <mxCell id="QrFVo9G-E2JHN8yqlYp3-126" value="" style="shape=partialRectangle;overflow=hidden;connectable=0;fillColor=none;top=0;left=0;bottom=0;right=0;" vertex="1" parent="QrFVo9G-E2JHN8yqlYp3-125">
          <mxGeometry width="30" height="30" as="geometry">
            <mxRectangle width="30" height="30" as="alternateBounds" />
          </mxGeometry>
        </mxCell>
        <mxCell id="QrFVo9G-E2JHN8yqlYp3-127" value="total_price decimal(18,2)" style="shape=partialRectangle;overflow=hidden;connectable=0;fillColor=none;top=0;left=0;bottom=0;right=0;align=left;spacingLeft=6;" vertex="1" parent="QrFVo9G-E2JHN8yqlYp3-125">
          <mxGeometry x="30" width="220" height="30" as="geometry">
            <mxRectangle width="220" height="30" as="alternateBounds" />
          </mxGeometry>
        </mxCell>
        <mxCell id="QrFVo9G-E2JHN8yqlYp3-128" value="quentity int" style="shape=partialRectangle;overflow=hidden;connectable=0;fillColor=none;top=0;left=0;bottom=0;right=0;align=left;spacingLeft=6;" vertex="1" parent="a5PGAm09jIwH3UO00iZv-1">
          <mxGeometry x="910" y="210" width="220" height="30" as="geometry">
            <mxRectangle width="220" height="30" as="alternateBounds" />
          </mxGeometry>
        </mxCell>
        <mxCell id="QrFVo9G-E2JHN8yqlYp3-129" value="stutus char(20)" style="shape=partialRectangle;overflow=hidden;connectable=0;fillColor=none;top=0;left=0;bottom=0;right=0;align=left;spacingLeft=6;" vertex="1" parent="a5PGAm09jIwH3UO00iZv-1">
          <mxGeometry x="910" y="240" width="220" height="30" as="geometry">
            <mxRectangle width="220" height="30" as="alternateBounds" />
          </mxGeometry>
        </mxCell>
        <mxCell id="QrFVo9G-E2JHN8yqlYp3-130" value="FK1" style="shape=partialRectangle;overflow=hidden;connectable=0;fillColor=none;top=0;left=0;bottom=0;right=0;" vertex="1" parent="a5PGAm09jIwH3UO00iZv-1">
          <mxGeometry x="880" y="270" width="30" height="30" as="geometry">
            <mxRectangle width="30" height="30" as="alternateBounds" />
          </mxGeometry>
        </mxCell>
        <mxCell id="QrFVo9G-E2JHN8yqlYp3-131" value="cart_id int NOT NULL" style="shape=partialRectangle;overflow=hidden;connectable=0;fillColor=none;top=0;left=0;bottom=0;right=0;align=left;spacingLeft=6;" vertex="1" parent="a5PGAm09jIwH3UO00iZv-1">
          <mxGeometry x="910" y="270" width="220" height="30" as="geometry">
            <mxRectangle width="220" height="30" as="alternateBounds" />
          </mxGeometry>
        </mxCell>
        <mxCell id="QrFVo9G-E2JHN8yqlYp3-132" value="Category" style="shape=table;startSize=30;container=1;collapsible=1;childLayout=tableLayout;fixedRows=1;rowLines=0;fontStyle=1;align=center;resizeLast=1;" vertex="1" parent="a5PGAm09jIwH3UO00iZv-1">
          <mxGeometry x="880" y="470" width="250" height="130" as="geometry" />
        </mxCell>
        <mxCell id="QrFVo9G-E2JHN8yqlYp3-133" value="" style="shape=partialRectangle;collapsible=0;dropTarget=0;pointerEvents=0;fillColor=none;points=[[0,0.5],[1,0.5]];portConstraint=eastwest;top=0;left=0;right=0;bottom=1;" vertex="1" parent="QrFVo9G-E2JHN8yqlYp3-132">
          <mxGeometry y="30" width="250" height="30" as="geometry" />
        </mxCell>
        <mxCell id="QrFVo9G-E2JHN8yqlYp3-134" value="PK" style="shape=partialRectangle;overflow=hidden;connectable=0;fillColor=none;top=0;left=0;bottom=0;right=0;fontStyle=1;" vertex="1" parent="QrFVo9G-E2JHN8yqlYp3-133">
          <mxGeometry width="30" height="30" as="geometry">
            <mxRectangle width="30" height="30" as="alternateBounds" />
          </mxGeometry>
        </mxCell>
        <mxCell id="QrFVo9G-E2JHN8yqlYp3-135" value="category_id int NOT NULL " style="shape=partialRectangle;overflow=hidden;connectable=0;fillColor=none;top=0;left=0;bottom=0;right=0;align=left;spacingLeft=6;fontStyle=5;" vertex="1" parent="QrFVo9G-E2JHN8yqlYp3-133">
          <mxGeometry x="30" width="220" height="30" as="geometry">
            <mxRectangle width="220" height="30" as="alternateBounds" />
          </mxGeometry>
        </mxCell>
        <mxCell id="QrFVo9G-E2JHN8yqlYp3-136" value="" style="shape=partialRectangle;collapsible=0;dropTarget=0;pointerEvents=0;fillColor=none;points=[[0,0.5],[1,0.5]];portConstraint=eastwest;top=0;left=0;right=0;bottom=0;" vertex="1" parent="QrFVo9G-E2JHN8yqlYp3-132">
          <mxGeometry y="60" width="250" height="30" as="geometry" />
        </mxCell>
        <mxCell id="QrFVo9G-E2JHN8yqlYp3-137" value="" style="shape=partialRectangle;overflow=hidden;connectable=0;fillColor=none;top=0;left=0;bottom=0;right=0;" vertex="1" parent="QrFVo9G-E2JHN8yqlYp3-136">
          <mxGeometry width="30" height="30" as="geometry">
            <mxRectangle width="30" height="30" as="alternateBounds" />
          </mxGeometry>
        </mxCell>
        <mxCell id="QrFVo9G-E2JHN8yqlYp3-138" value="category_name char(50) NOT NULL" style="shape=partialRectangle;overflow=hidden;connectable=0;fillColor=none;top=0;left=0;bottom=0;right=0;align=left;spacingLeft=6;" vertex="1" parent="QrFVo9G-E2JHN8yqlYp3-136">
          <mxGeometry x="30" width="220" height="30" as="geometry">
            <mxRectangle width="220" height="30" as="alternateBounds" />
          </mxGeometry>
        </mxCell>
        <mxCell id="QrFVo9G-E2JHN8yqlYp3-139" value="" style="shape=partialRectangle;collapsible=0;dropTarget=0;pointerEvents=0;fillColor=none;points=[[0,0.5],[1,0.5]];portConstraint=eastwest;top=0;left=0;right=0;bottom=0;" vertex="1" parent="QrFVo9G-E2JHN8yqlYp3-132">
          <mxGeometry y="90" width="250" height="30" as="geometry" />
        </mxCell>
        <mxCell id="QrFVo9G-E2JHN8yqlYp3-140" value="" style="shape=partialRectangle;overflow=hidden;connectable=0;fillColor=none;top=0;left=0;bottom=0;right=0;" vertex="1" parent="QrFVo9G-E2JHN8yqlYp3-139">
          <mxGeometry width="30" height="30" as="geometry">
            <mxRectangle width="30" height="30" as="alternateBounds" />
          </mxGeometry>
        </mxCell>
        <mxCell id="QrFVo9G-E2JHN8yqlYp3-141" value="" style="shape=partialRectangle;overflow=hidden;connectable=0;fillColor=none;top=0;left=0;bottom=0;right=0;align=left;spacingLeft=6;" vertex="1" parent="QrFVo9G-E2JHN8yqlYp3-139">
          <mxGeometry x="30" width="220" height="30" as="geometry">
            <mxRectangle width="220" height="30" as="alternateBounds" />
          </mxGeometry>
        </mxCell>
      </root>
    </mxGraphModel>
  </diagram>
</mxfile>
